<svg width="300" height="30" viewBox="0 0 300 30" fill="none" xmlns="http://www.w3.org/2000/svg">
<path d="M2.11364 23.6568V6.20221H8.21591C9.43182 6.20221 10.4347 6.41244 11.2244 6.83289C12.0142 7.24766 12.6023 7.80732 12.9886 8.51187C13.375 9.21073 13.5682 9.9863 13.5682 10.8386C13.5682 11.5886 13.4347 12.2079 13.1676 12.6965C12.9063 13.1852 12.5597 13.5715 12.1278 13.8556C11.7017 14.1397 11.2386 14.3499 10.7386 14.4863V14.6568C11.2727 14.6908 11.8097 14.8783 12.3494 15.2193C12.8892 15.5602 13.3409 16.0488 13.7045 16.6852C14.0682 17.3215 14.25 18.0999 14.25 19.0204C14.25 19.8954 14.0511 20.6823 13.6534 21.3812C13.2557 22.08 12.6278 22.634 11.7699 23.0431C10.9119 23.4522 9.79545 23.6568 8.42045 23.6568H2.11364ZM4.22727 21.7818H8.42045C9.80114 21.7818 10.7813 21.5147 11.3608 20.9806C11.946 20.4408 12.2386 19.7874 12.2386 19.0204C12.2386 18.4295 12.0881 17.884 11.7869 17.384C11.4858 16.8783 11.0568 16.4749 10.5 16.1738C9.94318 15.867 9.28409 15.7136 8.52273 15.7136H4.22727V21.7818ZM4.22727 13.8727H8.14773C8.78409 13.8727 9.35795 13.7477 9.86932 13.4977C10.3864 13.2477 10.7955 12.8954 11.0966 12.4408C11.4034 11.9863 11.5568 11.4522 11.5568 10.8386C11.5568 10.0715 11.2898 9.42096 10.7557 8.88687C10.2216 8.34709 9.375 8.07721 8.21591 8.07721H4.22727V13.8727ZM17.4503 23.6568V10.5658H19.4616V23.6568H17.4503ZM18.473 8.38403C18.081 8.38403 17.7429 8.2505 17.4588 7.98346C17.1804 7.71641 17.0412 7.39539 17.0412 7.02039C17.0412 6.64539 17.1804 6.32437 17.4588 6.05732C17.7429 5.79028 18.081 5.65675 18.473 5.65675C18.8651 5.65675 19.2003 5.79028 19.4787 6.05732C19.7628 6.32437 19.9048 6.64539 19.9048 7.02039C19.9048 7.39539 19.7628 7.71641 19.4787 7.98346C19.2003 8.2505 18.8651 8.38403 18.473 8.38403ZM28.8388 10.5658V12.2704H22.0547V10.5658H28.8388ZM24.032 7.42948H26.0433V19.9068C26.0433 20.4749 26.1257 20.9011 26.2905 21.1852C26.4609 21.4636 26.6768 21.6511 26.9382 21.7477C27.2053 21.8386 27.4865 21.884 27.782 21.884C28.0036 21.884 28.1854 21.8727 28.3274 21.8499C28.4695 21.8215 28.5831 21.7988 28.6683 21.7818L29.0774 23.5886C28.9411 23.6397 28.7507 23.6908 28.5064 23.742C28.2621 23.7988 27.9524 23.8272 27.5774 23.8272C27.0092 23.8272 26.4524 23.705 25.907 23.4607C25.3672 23.2164 24.9183 22.8443 24.5604 22.3443C24.2081 21.8443 24.032 21.2136 24.032 20.4522V7.42948Z" fill="#959595"/>
<path d="M31.5405 23.6568V6.20221H38.4268C39.7507 6.20221 40.8786 6.45505 41.8104 6.96073C42.7422 7.46073 43.4524 8.15675 43.9411 9.0488C44.4354 9.93516 44.6825 10.9579 44.6825 12.117C44.6825 13.2761 44.4325 14.2988 43.9325 15.1852C43.4325 16.0715 42.7081 16.7619 41.7592 17.2562C40.8161 17.7505 39.674 17.9977 38.3331 17.9977H33.9439V15.0403H37.7365C38.4467 15.0403 39.032 14.9181 39.4922 14.6738C39.9581 14.4238 40.3047 14.08 40.532 13.6425C40.7649 13.1994 40.8814 12.6908 40.8814 12.117C40.8814 11.5374 40.7649 11.0318 40.532 10.5999C40.3047 10.1624 39.9581 9.82437 39.4922 9.58573C39.0263 9.34141 38.4354 9.21925 37.7195 9.21925H35.2308V23.6568H31.5405ZM48.0724 23.6568H44.1179L50.1435 6.20221H54.8991L60.9162 23.6568H56.9616L52.5895 10.1908H52.4531L48.0724 23.6568ZM47.8253 16.796H57.1662V19.6766H47.8253V16.796ZM60.2131 6.20221H64.3466L68.3267 13.7193H68.4972L72.4773 6.20221H76.6108L70.2443 17.4863V23.6568H66.5795V17.4863L60.2131 6.20221Z" fill="white"/>
<path fill-rule="evenodd" clip-rule="evenodd" d="M87.5681 18.7265L87.5638 18.7323L87.5597 18.7382C87.3276 19.0668 86.8077 19.1633 86.4012 18.8762C86.0758 18.6464 85.9779 18.1343 86.2551 17.7296C86.6685 17.2026 86.9688 16.5865 87.166 15.9843C87.3714 15.3573 87.4669 14.6448 87.4631 13.946C87.4594 13.2472 87.3564 12.5358 87.1444 11.911C86.9407 11.3108 86.6339 10.698 86.2148 10.1754C85.9334 9.77368 86.0258 9.26059 86.3488 9.02733C86.7522 8.73593 87.2731 8.82692 87.5086 9.15297L87.5128 9.15882L87.5172 9.16456C88.0388 9.85226 88.4666 10.6163 88.7222 11.3659C88.9913 12.2478 89.1628 13.1008 89.1672 13.9369C89.1719 14.8168 89.0878 15.6496 88.7649 16.4694C88.4132 17.3622 88.0727 18.0464 87.5681 18.7265ZM91.3393 20.3596L91.3495 20.3452L91.3589 20.3302C92.5149 18.4783 93.1817 16.2436 93.1693 13.9156C93.1569 11.5882 92.4667 9.36123 91.2915 7.522C91.0369 7.1182 91.1513 6.64077 91.5805 6.33074C91.8688 6.12252 92.41 6.19624 92.7311 6.62653C94.0579 8.73132 94.8593 11.2757 94.8733 13.9065C94.8878 16.6272 94.1142 19.0889 92.8087 21.2091C92.5067 21.6247 92.0443 21.7412 91.6456 21.5056C91.2134 21.189 91.1344 20.6497 91.3393 20.3596ZM98.1066 3.85998L98.118 3.88246L98.1312 3.90395C99.929 6.83466 100.928 10.2151 100.948 13.8742C100.967 17.5315 100.005 20.921 98.24 23.8697C97.9694 24.3048 97.5126 24.4274 97.0494 24.2119C96.6279 23.9372 96.5147 23.4821 96.7349 23.0223C98.2359 20.357 99.1693 17.2161 99.1515 13.8837C99.1338 10.5662 98.2662 7.43039 96.6345 4.76482C96.4137 4.30968 96.523 3.85639 96.9395 3.57858C97.442 3.33856 97.9316 3.51448 98.1066 3.85998ZM103.43 1.07088L103.438 1.08624L103.446 1.10115C105.625 4.86655 106.905 9.17151 106.93 13.8423C106.955 18.5083 105.723 22.8226 103.589 26.6082C103.318 27.0382 102.863 27.1586 102.402 26.9441C101.982 26.6703 101.868 26.2172 102.085 25.7589C104.142 22.2501 105.249 18.185 105.226 13.8514C105.203 9.50656 103.955 5.4572 101.961 1.98305C101.712 1.47589 101.888 0.979186 102.236 0.802565C102.748 0.543316 103.252 0.719298 103.43 1.07088Z" fill="white"/>
</svg>
